# xmcd CD database file
#
# Track frame offsets:
#	150
#	16969
#	31325
#	45403
#	59666
#	85144
#	91389
#	110402
#	129494
#	143485
#	163759
#
# Disc length: 2411 seconds
#
# Revision: 0
# Processed by: cddbd v1.5.2PL0 Copyright (c) Steve Scherf et al.
# Submitted via: CDex 1.70beta3
#
DISCID=8809690b
DTITLE=8ch - キラッ☆とジャズ
DYEAR=2009
DGENRE=Jazz
TTITLE0=星間飛行
TTITLE1=プリキュア5、スマイルGOGO!
TTITLE2=創聖のアクエリオン
TTITLE3=儚くも永久のカナシ
TTITLE4=ノーザンクロス - ライオン
TTITLE5=我が心 明鏡止水～されどこの拳は烈火の如く～
TTITLE6=空色デイズ
TTITLE7=溝ノ口太陽族
TTITLE8=MOTTO☆派手にね!
TTITLE9=One Mre Time, One More Chance
TTITLE10=星間飛行 feat. vivi
EXTD=YEAR: 2009
EXTT0=
EXTT1=
EXTT2=
EXTT3=
EXTT4=
EXTT5=
EXTT6=
EXTT7=
EXTT8=
EXTT9=
EXTT10=
PLAYORDER=
